<svg id="Layer_1" data-name="Layer 1" xmlns="http://www.w3.org/2000/svg" viewBox="0 0 91.68 100.39"><defs><style>.cls-1{fill:#ffdf94;}.cls-2{fill:none;stroke:#fff;stroke-miterlimit:10;}</style></defs><title>Candy</title><path class="cls-1" d="M166.56,95.8c3.34,5.94-7.89,25.59-7.89,25.59s15,18.34,11.7,24.6-25.73,9.07-25.73,9.07-9.22,19-15.84,19.32-20.64-19.32-20.64-19.32-18.58,3.47-24.72-2.48S91.32,127,91.32,127s-15-18.34-11.69-24.6,25.72-6.27,25.72-6.27,9.23-21.8,15.84-22.13S139,93.33,139,93.33,163.22,89.86,166.56,95.8Z" transform="translate(-79.16 -74)"/><path class="cls-2" d="M111,124.19s-2.81,16.84,2.8,19.65,19.65-5.62,19.65-5.62" transform="translate(-79.16 -74)"/></svg>