<svg xmlns="http://www.w3.org/2000/svg" viewBox="0 0 88.68 220.4"><defs><style>.cls-1,.cls-4{fill:none;}.cls-1{stroke:#8cc63f;}.cls-1,.cls-2,.cls-4{stroke-miterlimit:10;}.cls-1,.cls-2{stroke-width:2px;}.cls-2{fill:#ffe9fb;}.cls-2,.cls-4{stroke:#fff;}.cls-3{fill:#ff7bac;}.cls-5{font-size:16.73px;font-family:Montserrat-Bold, Montserrat;font-weight:700;}.cls-6{font-size:25px;font-family:Montserrat-Regular, Montserrat;}</style></defs><title>Project_Header</title><g id="Layer_3" data-name="Layer 3"><rect class="cls-1" x="10.5" y="9.9" width="59.5" height="209.5"/></g><g id="Layer_1" data-name="Layer 1"><rect class="cls-2" x="1" y="2.4" width="65" height="213"/></g><g id="Layer_2" data-name="Layer 2"><path class="cls-3" d="M143.31,34.38c1.19,2.12-2.81,9.12-2.81,9.12s5.34,6.54,4.17,8.77-9.17,3.23-9.17,3.23-3.29,6.77-5.64,6.89-7.36-6.89-7.36-6.89-6.62,1.24-8.81-.88,2.81-9.12,2.81-9.12-5.34-6.54-4.17-8.77,9.17-2.23,9.17-2.23,3.29-7.77,5.64-7.89,6.36,6.89,6.36,6.89S142.12,32.26,143.31,34.38Z" transform="translate(-94.5 -13.1)"/><path class="cls-4" d="M123.5,44.5s-1,6,1,7,7-2,7-2" transform="translate(-94.5 -13.1)"/><text class="cls-5" transform="translate(27.28 78.11)">P<tspan x="-0.02" y="20.07">R</tspan><tspan x="-0.94" y="40.14">O</tspan><tspan x="1.6" y="60.21">J</tspan><tspan x="0.51" y="80.28">E</tspan><tspan x="-0.01" y="100.35">C</tspan><tspan x="0.95" y="120.43">T</tspan></text><text class="cls-6" transform="translate(79.66 21.25)">1</text></g></svg>