<svg id="Layer_1" data-name="Layer 1" xmlns="http://www.w3.org/2000/svg" viewBox="0 0 128.97 128.98"><defs><style>.cls-1{fill:#707070;}.cls-2{fill:#fff;}</style></defs><title>Soot</title><circle class="cls-1" cx="64.75" cy="63.6" r="46.5"/><path class="cls-1" d="M124,72a46,46,0,1,1-46,46,46.06,46.06,0,0,1,46-46m0-1a47,47,0,1,0,47,47,47,47,0,0,0-47-47Z" transform="translate(-59.25 -54.4)"/><path class="cls-1" d="M91.5,69.52c-1.47-2.71-1.76-5.09-.8-6.71a3.48,3.48,0,0,1,3.09-1.66c1.68,0,4,1.05,5.58,4l8.84,16-7.87,4.35Z" transform="translate(-59.25 -54.4)"/><path class="cls-1" d="M93.79,61.65h0c1.54,0,3.69,1,5.15,3.76L107.54,81l-7,3.87L91.94,69.28c-1.37-2.51-1.66-4.78-.81-6.22a3,3,0,0,1,2.66-1.41m0-1c-3.32,0-5.83,3.41-2.73,9.11l9.08,16.42,8.75-4.84L99.82,64.92c-1.55-2.94-3.95-4.27-6-4.27Z" transform="translate(-59.25 -54.4)"/><path class="cls-1" d="M119.6,79.83l.2-18.26c.08-4.92,2.34-6.67,4.25-6.67A4.1,4.1,0,0,1,127,56.26a7.28,7.28,0,0,1,1.81,5.4l-.2,18.27Z" transform="translate(-59.25 -54.4)"/><path class="cls-1" d="M124.05,55.4h0a3.64,3.64,0,0,1,2.58,1.2,6.88,6.88,0,0,1,1.67,5.06l-.2,17.77-8-.09.2-17.76c.06-3.75,1.54-6.18,3.75-6.18m0-1c-2.37,0-4.67,2.18-4.75,7.17l-.21,18.76,10,.11.21-18.76c.14-4.56-2.6-7.28-5.25-7.28Z" transform="translate(-59.25 -54.4)"/><path class="cls-1" d="M124.66,182.88a4.18,4.18,0,0,1-2.94-1.33,7.32,7.32,0,0,1-1.89-5.3L119.54,158l9-.14.29,18.26c0,3.26-.93,4.91-1.74,5.73A3.36,3.36,0,0,1,124.66,182.88Z" transform="translate(-59.25 -54.4)"/><path class="cls-1" d="M128.05,158.34l.28,17.76c0,2.41-.55,4.32-1.6,5.38a2.87,2.87,0,0,1-2.07.9,3.68,3.68,0,0,1-2.58-1.18,6.89,6.89,0,0,1-1.75-5l-.28-17.76,8-.13m1-1-10,.16.3,18.76c0,4.5,2.71,7.13,5.33,7.13,2.41,0,4.71-2.23,4.67-7.29l-.3-18.76Z" transform="translate(-59.25 -54.4)"/><path class="cls-1" d="M162.71,114l18.26-.14c5,0,6.75,2.26,6.75,4.19,0,2.36-2.44,4.81-6.53,4.81l-18.41.14Z" transform="translate(-59.25 -54.4)"/><path class="cls-1" d="M181,113.35v1a8.3,8.3,0,0,1,4.9,1.25,3,3,0,0,1,1.32,2.44c0,2.12-2.25,4.31-6,4.31H181l-17.76.14-.07-8,17.76-.14,0-1m0,0h0l-18.76.15.08,10,18.76-.15h.14c8.51,0,10.27-10-.19-10Z" transform="translate(-59.25 -54.4)"/><path class="cls-1" d="M66.38,124c-3,0-5.25-.89-6.19-2.51a3.51,3.51,0,0,1,.1-3.58c1.05-1.82,3.31-2.91,6-2.91l18.33-.29.14,9Z" transform="translate(-59.25 -54.4)"/><path class="cls-1" d="M84.16,115.21l.13,8-17.76.29h-.15a8.14,8.14,0,0,1-4.82-1.24,3,3,0,0,1-1.31-2.43c0-2.13,2.27-4.33,6.07-4.33h.08l17.76-.28m1-1-18.76.3h-.06c-8.54,0-10.29,10,.06,10h.16l18.76-.3-.16-10Z" transform="translate(-59.25 -54.4)"/><path class="cls-1" d="M140.89,82.71l9.51-15.59c1.6-2.59,3.51-4,5.37-4A3.48,3.48,0,0,1,158.85,65c1,1.89.74,4.42-.76,6.77l-9.52,15.6Z" transform="translate(-59.25 -54.4)"/><path class="cls-1" d="M155.77,63.6h0a3,3,0,0,1,2.64,1.67c.94,1.72.66,4.06-.75,6.28L148.4,86.71l-6.83-4.16,9.25-15.16c1.49-2.41,3.3-3.78,5-3.79m0-1c-1.8,0-3.92,1.22-5.8,4.26l-9.77,16,8.54,5.21,9.77-16c3.08-4.82.78-9.47-2.74-9.47Z" transform="translate(-59.25 -54.4)"/><path class="cls-1" d="M71,153.79a3.51,3.51,0,0,1-3.65-2.59c-.53-1.95.39-4.75,3.63-6.64l15.61-9.51,4.68,7.69-15.59,9.5A9.49,9.49,0,0,1,71,153.79Z" transform="translate(-59.25 -54.4)"/><path class="cls-1" d="M86.39,135.74l4.17,6.83-15.17,9.24A8.92,8.92,0,0,1,71,153.29a3,3,0,0,1-3.17-2.22c-.47-1.76.39-4.33,3.42-6.08l15.17-9.25m.34-1.37-16,9.76c-5.9,3.43-4.88,10.16.27,10.16a9.84,9.84,0,0,0,4.94-1.62l16-9.76-5.2-8.54Z" transform="translate(-59.25 -54.4)"/><path class="cls-1" d="M177.16,151.33a8.09,8.09,0,0,1-4-1.19l-16-8.88,4.38-7.87,16,8.88c3.13,1.77,4.68,4.08,4.12,6.18C181.14,150.18,179.36,151.33,177.16,151.33Z" transform="translate(-59.25 -54.4)"/><path class="cls-1" d="M161.7,134.07l15.52,8.63c2.93,1.65,4.38,3.76,3.89,5.63-.39,1.5-2,2.5-4,2.5a7.72,7.72,0,0,1-3.82-1.13l-15.53-8.64,3.89-7m-.39-1.36-4.86,8.74,16.4,9.12a8.63,8.63,0,0,0,4.31,1.26c5.18,0,7.88-5.87.55-10l-16.4-9.12Z" transform="translate(-59.25 -54.4)"/><path class="cls-1" d="M156.2,95.89l15.71-9.31a9.36,9.36,0,0,1,4.62-1.49,3.51,3.51,0,0,1,3.68,2.61c.52,2-.43,4.76-3.7,6.61l-15.72,9.32Z" transform="translate(-59.25 -54.4)"/><path class="cls-1" d="M176.53,85.59h0a3.06,3.06,0,0,1,3.2,2.24c.47,1.77-.43,4.33-3.49,6.06L161,103l-4.08-6.88L172.16,87a9,9,0,0,1,4.37-1.42m0-1a9.89,9.89,0,0,0-4.88,1.56l-16.14,9.57,5.1,8.6,16.14-9.57c6-3.37,5-10.16-.22-10.16Z" transform="translate(-59.25 -54.4)"/><path class="cls-1" d="M71.93,90.89c-2.89-2-4.25-4.36-3.62-6.38a4.13,4.13,0,0,1,4.18-2.64A7.84,7.84,0,0,1,77,83.43L92.1,93.65l-5,7.46Z" transform="translate(-59.25 -54.4)"/><path class="cls-1" d="M72.49,82.37h0a7.4,7.4,0,0,1,4.2,1.48l14.72,9.94-4.48,6.63L72.22,90.48c-2.71-1.85-4-4-3.43-5.82a3.64,3.64,0,0,1,3.7-2.29m0-1c-4.81,0-7.52,5.37-.84,9.94l15.55,10.5,5.6-8.29L77.25,83a8.32,8.32,0,0,0-4.76-1.65Z" transform="translate(-59.25 -54.4)"/><path class="cls-1" d="M93.74,174.71a3.47,3.47,0,0,1-3.06-1.92c-1-1.87-.77-4.4.72-6.76l9.42-15.65,7.71,4.64-9.42,15.64C97.52,173.27,95.61,174.71,93.74,174.71Z" transform="translate(-59.25 -54.4)"/><path class="cls-1" d="M101,151.06l6.86,4.13L98.69,170.4c-1.48,2.42-3.28,3.81-5,3.81a3,3,0,0,1-2.63-1.66c-.94-1.71-.68-4.05.72-6.27L101,151.06m-.34-1.37L91,165.77c-3,4.82-.73,9.44,2.77,9.44,1.81,0,3.93-1.22,5.8-4.29l9.68-16.08-8.57-5.15Z" transform="translate(-59.25 -54.4)"/><path class="cls-1" d="M157.51,173a7,7,0,0,1-5.47-3.29L141.21,155l7.24-5.34,10.83,14.71c1.87,2.57,2.44,5,1.57,6.75A3.61,3.61,0,0,1,157.51,173Z" transform="translate(-59.25 -54.4)"/><path class="cls-1" d="M148.35,150.37l10.53,14.3c1.75,2.41,2.31,4.69,1.52,6.23a3.11,3.11,0,0,1-2.89,1.61,6.46,6.46,0,0,1-5.07-3.09l-10.53-14.31,6.44-4.74m.21-1.4-8.05,5.93L151.63,170a7.41,7.41,0,0,0,5.88,3.5c3.66,0,6.24-3.84,2.18-9.43L148.56,149Z" transform="translate(-59.25 -54.4)"/><circle class="cls-2" cx="41.75" cy="64.6" r="16.5"/><path class="cls-2" d="M101,103a16,16,0,1,1-16,16,16,16,0,0,1,16-16m0-1a17,17,0,1,0,17,17,17,17,0,0,0-17-17Z" transform="translate(-59.25 -54.4)"/><circle class="cls-2" cx="87.75" cy="63.6" r="16.5"/><path class="cls-2" d="M147,102a16,16,0,1,1-16,16,16,16,0,0,1,16-16m0-1a17,17,0,1,0,17,17,17,17,0,0,0-17-17Z" transform="translate(-59.25 -54.4)"/><circle cx="51.75" cy="64.6" r="3.5"/><path d="M111,116a3,3,0,1,1-3,3,3,3,0,0,1,3-3m0-1a4,4,0,1,0,4,4,4,4,0,0,0-4-4Z" transform="translate(-59.25 -54.4)"/><circle cx="77.75" cy="64.6" r="3.5"/><path d="M137,116a3,3,0,1,1-3,3,3,3,0,0,1,3-3m0-1a4,4,0,1,0,4,4,4,4,0,0,0-4-4Z" transform="translate(-59.25 -54.4)"/></svg>